<?xml version="1.0" encoding="utf-8"?>
<!-- Generator: Adobe Illustrator 24.1.2, SVG Export Plug-In . SVG Version: 6.00 Build 0)  -->
<svg version="1.1" id="Layer_1" xmlns="http://www.w3.org/2000/svg" xmlns:xlink="http://www.w3.org/1999/xlink" x="0px" y="0px"
	 viewBox="0 0 18.2 17.83" style="enable-background:new 0 0 18.2 17.83;" xml:space="preserve">
<style type="text/css">
	.st0{fill:#54D9BD;}
</style>
<g>
	<path d="M3.89,1.45c0-0.17,0-0.33,0-0.48c0-0.55,0.33-0.92,0.87-0.96C5.02-0.01,5.27,0,5.52,0.02c0.43,0.04,0.76,0.41,0.77,0.84
		c0,0.19,0,0.39,0,0.59c1.88,0,3.75,0,5.64,0c0-0.17,0-0.34,0-0.5c0-0.53,0.31-0.89,0.84-0.94C13.03-0.01,13.3,0,13.56,0.02
		c0.43,0.04,0.76,0.42,0.76,0.86c0,0.19,0,0.37,0,0.58c0.14,0,0.26,0,0.38,0c0.46,0,0.92-0.01,1.37,0.02
		c1.18,0.06,2.11,1.04,2.12,2.23c0,1.14,0,2.28,0,3.42c0,1.75,0,3.51,0,5.26c0,0.68-0.23,1.27-0.7,1.75
		c-1.01,1.02-2.02,2.04-3.05,3.05c-0.41,0.4-0.93,0.61-1.52,0.63c-0.45,0.02-0.9,0.01-1.36,0.01c-3.06,0-6.13,0-9.19,0
		c-1.16,0-2.07-0.71-2.32-1.81c-0.04-0.19-0.05-0.38-0.06-0.58c0-3.86,0.01-7.72-0.01-11.58c-0.01-1.28,0.97-2.42,2.39-2.4
		c0.46,0,0.92,0,1.37,0C3.8,1.46,3.83,1.46,3.89,1.45z M1.44,6.13c0,0.09,0,0.16,0,0.23c0,3.01,0,6.03,0,9.04
		c0,0.61,0.37,0.97,0.98,0.97c3.26,0,6.52,0,9.79,0c0.06,0,0.11,0,0.18,0c0-0.08,0-0.14,0-0.2c0-0.85,0-1.7,0-2.55
		c0-0.38,0.12-0.72,0.35-1.02c0.35-0.44,0.81-0.62,1.36-0.62c0.83,0,1.67,0,2.5,0c0.06,0,0.11,0,0.17,0c0-1.97,0-3.91,0-5.85
		C11.66,6.13,6.56,6.13,1.44,6.13z"/>
	<path class="st0" d="M11,11.66c-0.09-0.17-0.23-0.28-0.41-0.3c-0.17-0.03-0.35,0.04-0.48,0.17c-0.18,0.19-0.36,0.37-0.53,0.56v-0.4
		c0-1.01,0-1.66,0-2.92c0-0.2-0.08-0.36-0.24-0.48C9.17,8.16,8.96,8.15,8.77,8.26c-0.18,0.1-0.28,0.28-0.28,0.51
		c0,1.27,0,1.92,0,2.93v0.4c-0.18-0.19-0.36-0.38-0.54-0.57c-0.12-0.12-0.27-0.18-0.44-0.17c-0.16,0.01-0.31,0.1-0.4,0.23
		c-0.17,0.24-0.14,0.53,0.08,0.75l1.64,1.72c0.01,0.01,0.02,0.02,0.03,0.03l0.02,0.02c0.04,0.04,0.1,0.07,0.16,0.07
		c0.01,0,0.01,0,0.02,0c0.07-0.01,0.13-0.04,0.17-0.1l1.65-1.74c0.03-0.03,0.06-0.07,0.09-0.11C11.09,12.05,11.1,11.85,11,11.66z"/>
</g>
</svg>
