<?xml version="1.0" encoding="utf-8"?>
<!-- Generator: Adobe Illustrator 24.1.2, SVG Export Plug-In . SVG Version: 6.00 Build 0)  -->
<svg version="1.1" id="Layer_1" xmlns="http://www.w3.org/2000/svg" xmlns:xlink="http://www.w3.org/1999/xlink" x="0px" y="0px"
	 viewBox="0 0 18.2 17.83" style="enable-background:new 0 0 18.2 17.83;" xml:space="preserve">
<style type="text/css">
	.st0{fill:#54D9BD;}
	.st1{fill:#FFFFFF;}
</style>
<g>
	<path d="M8.12-0.01c-4.43,0-8.04,3.6-8.04,8.03s3.61,8.03,8.04,8.03s8.04-3.6,8.04-8.03S12.55-0.01,8.12-0.01z M2.88,3.56
		l1.18,1.16c0.11,0.11,0.26,0.17,0.41,0.17c0.15,0,0.3-0.06,0.41-0.17c0.23-0.22,0.23-0.59,0-0.81L3.7,2.75
		c1.2-1,2.74-1.61,4.42-1.61c1.69,0,3.25,0.62,4.45,1.64l-1.15,1.14c-0.23,0.22-0.23,0.59,0,0.81c0.11,0.11,0.26,0.17,0.41,0.17
		c0.15,0,0.3-0.06,0.41-0.17l1.15-1.13c0.87,1.04,1.45,2.34,1.58,3.77l-1.57-0.02c-0.32,0-0.59,0.25-0.59,0.57
		c0,0.32,0.25,0.58,0.57,0.58l1.6,0.02c-0.11,1.45-0.66,2.77-1.52,3.83l-1.22-1.2c-0.23-0.22-0.6-0.22-0.83,0
		c-0.23,0.22-0.23,0.59,0,0.81l1.24,1.22c-1.06,0.94-2.42,1.55-3.91,1.68l0.03-1.77c0-0.32-0.25-0.58-0.57-0.58
		C7.87,12.5,7.6,12.76,7.6,13.08l-0.03,1.79c-1.5-0.12-2.87-0.72-3.95-1.66l1.26-1.25c0.23-0.22,0.23-0.59,0-0.81
		c-0.23-0.22-0.6-0.22-0.83,0l-1.25,1.23C1.92,11.31,1.36,9.97,1.26,8.5l1.67,0.02c0,0,0.01,0,0.01,0c0.32,0,0.58-0.25,0.58-0.57
		c0-0.32-0.25-0.58-0.57-0.58L1.27,7.35C1.41,5.91,1.99,4.61,2.88,3.56z"/>
	<g>
		<circle class="st0" cx="14.18" cy="13.89" r="3.95"/>
		<path class="st1" d="M13.42,14.89c0.17-0.2,0.33-0.4,0.5-0.59c0.57-0.68,1.14-1.37,1.71-2.06c0.09-0.1,0.2-0.14,0.32-0.11
			c0.12,0.03,0.19,0.12,0.21,0.24c0.02,0.1-0.03,0.18-0.09,0.25c-0.49,0.59-0.98,1.18-1.48,1.77c-0.31,0.37-0.61,0.74-0.92,1.1
			c-0.14,0.17-0.33,0.17-0.48,0.01c-0.28-0.31-0.56-0.63-0.85-0.94c-0.12-0.13-0.13-0.27-0.04-0.39c0.11-0.15,0.32-0.16,0.46-0.01
			c0.2,0.22,0.4,0.44,0.6,0.66C13.38,14.85,13.39,14.86,13.42,14.89z"/>
	</g>
	<g>
		<path d="M8.73,5.19c0,0.59,0,1.19,0,1.78c0,0.1,0.02,0.18,0.11,0.23c0,0,0.01,0.01,0.01,0.01C9,7.46,9.24,7.47,9.5,7.46
			c0.38-0.02,0.75-0.01,1.13,0c0.27,0,0.46,0.13,0.57,0.38c0.09,0.22,0.03,0.42-0.13,0.6c-0.13,0.14-0.3,0.18-0.48,0.18
			c-0.45,0-0.91,0-1.36,0c-0.1,0-0.17,0.02-0.24,0.11c-0.28,0.34-0.64,0.49-1.08,0.4c-0.46-0.1-0.75-0.4-0.85-0.85
			c-0.1-0.43,0.05-0.8,0.4-1.07c0.08-0.06,0.11-0.13,0.11-0.23c0-1.18,0-2.36,0-3.54c0-0.23,0.09-0.42,0.3-0.54
			c0.19-0.11,0.4-0.11,0.58,0.01c0.19,0.12,0.28,0.29,0.28,0.51C8.73,4.01,8.73,4.6,8.73,5.19z"/>
	</g>
</g>
</svg>
