<?xml version="1.0" encoding="utf-8"?>
<!-- Generator: Adobe Illustrator 24.1.2, SVG Export Plug-In . SVG Version: 6.00 Build 0)  -->
<svg version="1.1" id="Layer_1" xmlns="http://www.w3.org/2000/svg" xmlns:xlink="http://www.w3.org/1999/xlink" x="0px" y="0px"
	 viewBox="0 0 18.2 17.83" style="enable-background:new 0 0 18.2 17.83;" xml:space="preserve">
<style type="text/css">
	.st0{fill:#E24259;}
</style>
<g>
	<path d="M16.18,7.1c0,0.06,0,0.12,0,0.18c0,2.22,0,4.45,0,6.67c0,0.24-0.08,0.38-0.3,0.48c-2.31,1.1-4.61,2.21-6.92,3.32
		c-0.06,0.03-0.12,0.05-0.19,0.08c0-0.08,0-0.14,0-0.2c0-2.85,0-5.71,0-8.56c0-0.14,0.05-0.21,0.17-0.27
		c1.01-0.48,2.01-0.97,3.02-1.45c0.09-0.04,0.16-0.04,0.25,0C13.5,7.9,14.77,7.85,16,7.17c0.05-0.03,0.09-0.05,0.14-0.08
		C16.14,7.09,16.15,7.1,16.18,7.1z M12.63,8.77c0.01-0.32-0.24-0.47-0.48-0.35c-0.85,0.42-1.7,0.84-2.54,1.27
		c-0.18,0.09-0.24,0.27-0.16,0.43c0.09,0.17,0.26,0.24,0.44,0.15c0.85-0.42,1.71-0.85,2.56-1.28C12.54,8.93,12.6,8.82,12.63,8.77z
		 M9.77,12.23c0.03-0.01,0.08-0.02,0.13-0.04c0.85-0.42,1.7-0.84,2.54-1.28c0.08-0.04,0.15-0.13,0.18-0.21
		c0.05-0.13,0-0.25-0.11-0.33c-0.13-0.1-0.26-0.07-0.4-0.01c-0.82,0.41-1.64,0.82-2.46,1.23c-0.04,0.02-0.09,0.04-0.12,0.08
		c-0.11,0.09-0.15,0.22-0.09,0.35C9.49,12.15,9.6,12.23,9.77,12.23z"/>
	<path d="M0.73,5.34c0.36,0.17,0.68,0.33,1.01,0.49c0.2,0.1,0.47,0.15,0.57,0.32C2.4,6.3,2.33,6.57,2.33,6.78c0,1.04,0,2.07,0,3.11
		c0,0.15,0.02,0.29,0.16,0.36c0.15,0.08,0.28,0.04,0.41-0.05c0.19-0.13,0.39-0.26,0.59-0.39c0.15,0.3,0.29,0.59,0.44,0.88
		c0.14,0.29,0.32,0.33,0.59,0.15c0.19-0.13,0.39-0.26,0.6-0.4c0.03,0.05,0.07,0.1,0.1,0.15c0.22,0.37,0.45,0.74,0.67,1.12
		c0.11,0.18,0.23,0.24,0.39,0.2c0.17-0.04,0.25-0.16,0.25-0.37c0-1.06,0-2.12,0-3.17c0-0.06,0-0.13,0-0.21
		c0.06,0.02,0.1,0.03,0.13,0.05C7.11,8.4,7.56,8.62,8.02,8.84C8.1,8.88,8.13,8.93,8.13,9.02c0,2.9,0,5.79,0,8.69
		c0,0.03,0,0.06-0.01,0.12c-0.06-0.03-0.11-0.05-0.15-0.07c-2.33-1.12-4.65-2.23-6.98-3.34c-0.18-0.09-0.27-0.2-0.27-0.41
		c0-2.83,0-5.66,0-8.5C0.73,5.47,0.73,5.42,0.73,5.34z"/>
	<path class="st0" d="M13.93,7.08c-1.96,0-3.55-1.59-3.55-3.55c0-1.95,1.59-3.53,3.55-3.53c1.96-0.01,3.55,1.59,3.55,3.55
		C17.47,5.5,15.89,7.08,13.93,7.08z M14.38,3.54c0.45-0.45,0.88-0.88,1.31-1.31c0.19-0.19,0.21-0.38,0.06-0.52
		c-0.14-0.14-0.33-0.11-0.53,0.08c-0.25,0.25-0.49,0.49-0.74,0.74c-0.19,0.19-0.37,0.38-0.56,0.57C13.88,3.03,13.84,3,13.8,2.96
		c-0.4-0.4-0.8-0.81-1.21-1.2c-0.07-0.07-0.19-0.12-0.3-0.13c-0.13-0.01-0.23,0.08-0.28,0.21c-0.05,0.14,0,0.25,0.1,0.35
		c0.41,0.41,0.82,0.82,1.23,1.23c0.04,0.04,0.08,0.08,0.13,0.14c-0.06,0.05-0.11,0.09-0.16,0.13c-0.4,0.4-0.81,0.8-1.21,1.21
		c-0.15,0.15-0.15,0.34-0.02,0.48c0.13,0.13,0.33,0.12,0.48-0.03c0.28-0.28,0.56-0.56,0.84-0.84c0.17-0.17,0.33-0.34,0.5-0.52
		c0.06,0.06,0.11,0.1,0.15,0.14c0.41,0.41,0.81,0.81,1.22,1.22c0.16,0.16,0.36,0.17,0.49,0.03c0.13-0.13,0.12-0.32-0.03-0.48
		c-0.04-0.04-0.08-0.08-0.11-0.12C15.21,4.37,14.8,3.96,14.38,3.54z"/>
	<path d="M5.84,10.37c-0.1-0.16-0.19-0.32-0.29-0.48C5.4,9.63,5.23,9.6,4.97,9.77c-0.19,0.13-0.38,0.25-0.58,0.39
		C4.24,9.86,4.1,9.58,3.96,9.29C3.8,8.99,3.63,8.94,3.35,9.13C3.23,9.21,3.12,9.28,2.99,9.37c-0.01-0.06-0.01-0.1-0.01-0.14
		c0-0.92,0-1.84,0-2.77c0-0.1,0.02-0.16,0.12-0.2c2.18-1.04,4.36-2.08,6.54-3.12C9.67,3.12,9.7,3.11,9.71,3.11
		c0.04,0.42,0.03,0.83,0.11,1.24c0.08,0.4,0.24,0.78,0.37,1.19c-0.03,0.02-0.09,0.04-0.15,0.07C8.76,6.2,7.46,6.8,6.17,7.39
		c-0.2,0.09-0.3,0.22-0.29,0.45c0.01,0.79,0,1.58,0,2.38c0,0.05,0,0.1,0,0.15C5.86,10.37,5.85,10.37,5.84,10.37z"/>
	<path d="M10.5,1.06c-0.19,0.4-0.36,0.77-0.55,1.15C9.93,2.26,9.88,2.3,9.83,2.32c-2.29,1.1-4.58,2.19-6.88,3.29
		C2.91,5.63,2.84,5.65,2.79,5.63C2.25,5.37,1.71,5.11,1.15,4.83C1.22,4.8,1.27,4.77,1.32,4.74C4.04,3.43,6.76,2.12,9.47,0.8
		c0.18-0.09,0.34-0.1,0.52,0C10.17,0.9,10.35,0.99,10.5,1.06z"/>
	<path d="M11.35,6.94c-0.33,0.16-0.73,0.35-1.12,0.54c-0.55,0.27-1.1,0.54-1.66,0.79c-0.07,0.03-0.17,0.03-0.24,0
		c-0.41-0.19-0.82-0.39-1.26-0.6C8.26,7.13,9.42,6.6,10.52,6.1C10.81,6.39,11.08,6.66,11.35,6.94z"/>
</g>
</svg>
